<svg id="Capa_1" enable-background="new 0 0 512 512" height="512" viewBox="0 0 512 512" width="512" xmlns="http://www.w3.org/2000/svg"><g><g><g><g><g><g><g><circle cx="256" cy="256" fill="#a3d4ff" r="256"/></g></g></g></g></g></g><path d="m270.542 511.594c130.504-7.308 234.901-112.368 241.16-243.149l-208.106-208.107-111.424 274.647 50.441 50.441-31.375 66.864z" fill="#65b1fc"/><g><path d="m211.238 60.338-22.677 191.676 22.677 200.276h92.358l19.843-200.276-19.843-191.676z" fill="#707789"/></g><g><path d="m323.439 252.014-19.843-191.676h-47.475v391.952h47.475z" fill="#555a66"/></g><g><path d="m319.828 334.985h-127.656c-11.716-11.716-18.284-18.284-30-30v-97.342c11.716-11.716 18.284-18.284 30-30h127.656l30 30v97.342c-11.716 11.716-18.284 18.284-30 30z" fill="#555a66"/></g><g><path d="m319.828 177.642h-63.707v157.343h63.707c11.716-11.716 18.284-18.285 30-30v-97.343c-11.716-11.715-18.285-18.284-30-30z" fill="#333940"/></g><g><path d="m191.273 219.975h129.453v72.678h-129.453z" fill="#1dd882"/></g><g><path d="m256.121 219.975h64.606v72.678h-64.606z" fill="#06b26b"/></g><g><g><path d="m201.859 139.616h109.944l-4.452-43.004h-100.404z" fill="#9196aa"/></g><g><path d="m307.351 96.612h-51.23v43.004h55.682z" fill="#707789"/></g><g><path d="m311.451 373.012h-109.189l4.869 43.004h100.059z" fill="#9196aa"/></g><g><path d="m311.451 373.012h-55.33v43.004h51.069z" fill="#707789"/></g></g></g></svg>